<?xml version="1.0" encoding="iso-8859-1"?>
<!-- Generator: Adobe Illustrator 18.0.0, SVG Export Plug-In . SVG Version: 6.00 Build 0)  -->
<!DOCTYPE svg PUBLIC "-//W3C//DTD SVG 1.1//EN" "http://www.w3.org/Graphics/SVG/1.1/DTD/svg11.dtd">
<svg xmlns="http://www.w3.org/2000/svg" xmlns:xlink="http://www.w3.org/1999/xlink" version="1.1" id="Capa_1" x="0px" y="0px" viewBox="0 0 449.324 449.324" style="enable-background:new 0 0 449.324 449.324;" xml:space="preserve" width="512px" height="512px">
<path d="M446.394,2.929c-2.878-2.878-7.213-3.726-10.964-2.14c-1.562,0.66-38.721,16.543-79.645,49.298  c-2.22,1.777-3.579,4.416-3.736,7.255c-0.157,2.84,0.903,5.612,2.914,7.623l7.626,7.626l-77.333,77.333  c-3.927-3.492-9.939-3.367-13.703,0.396c-3.764,3.764-3.889,9.776-0.397,13.704l-3.522,3.521c-3.927-3.492-9.939-3.367-13.704,0.397  c-3.764,3.764-3.889,9.776-0.396,13.703l-3.522,3.522c-3.927-3.492-9.939-3.367-13.704,0.397c-3.764,3.764-3.889,9.776-0.396,13.703  L53.895,381.286c-3.927-3.492-9.939-3.367-13.703,0.396c-3.764,3.764-3.889,9.776-0.397,13.704l-3.522,3.521  c-3.927-3.492-9.939-3.367-13.704,0.397c-3.764,3.764-3.889,9.776-0.396,13.703L2.929,432.253c-3.905,3.905-3.905,10.237,0,14.143  c1.953,1.952,4.512,2.929,7.071,2.929s5.119-0.977,7.071-2.929l19.245-19.245c1.89,1.681,4.258,2.532,6.632,2.532  c2.559,0,5.119-0.977,7.071-2.929c3.764-3.764,3.889-9.776,0.397-13.703l3.521-3.521c1.89,1.681,4.257,2.532,6.632,2.532  c2.559,0,5.119-0.977,7.071-2.929c3.764-3.764,3.889-9.776,0.397-13.703l182.018-182.018c1.89,1.681,4.258,2.532,6.632,2.532  c2.559,0,5.119-0.977,7.071-2.929c3.764-3.764,3.889-9.776,0.397-13.703l3.522-3.522c1.89,1.681,4.258,2.532,6.632,2.532  c2.559,0,5.119-0.977,7.071-2.929c3.764-3.764,3.889-9.776,0.397-13.703l3.521-3.521c1.89,1.681,4.257,2.532,6.632,2.532  c2.559,0,5.119-0.977,7.071-2.929c3.764-3.764,3.889-9.776,0.397-13.703l7.164-7.164c0.401,11.495,3.958,22.687,10.49,32.505  c1.926,2.895,5.1,4.462,8.335,4.462c1.903,0,3.827-0.542,5.53-1.675c4.814-3.203,9.029-6.969,12.646-11.139  c9.331,11.785,21.867,20.646,36.455,25.535c1.034,0.347,2.107,0.519,3.178,0.519c1.533,0,3.061-0.353,4.459-1.049  c2.375-1.183,4.182-3.261,5.024-5.776c2.706-8.082,4.077-16.458,4.077-24.894c0-28.814-15.711-54.796-40.249-68.431l20.225-20.225  l7.626,7.626c1.881,1.88,4.426,2.929,7.071,2.929c0.184,0,0.368-0.005,0.552-0.015c2.84-0.157,5.479-1.516,7.255-3.736  c32.755-40.924,48.638-78.083,49.297-79.645C450.119,10.144,449.273,5.808,446.394,2.929z M328.598,167.809  c-2.252-6.916-2.699-14.328-1.227-21.653c1.472-7.325,4.75-13.989,9.498-19.497C341.455,140.825,338.302,156.515,328.598,167.809z   M376.756,175.39c0,2.592-0.175,5.178-0.522,7.747c-8.833-4.958-16.191-12.118-21.431-20.92c3.507-9.251,4.817-19.254,3.754-29.154  C369.928,143.837,376.756,159,376.756,175.39z M390.477,72.195l-13.349-13.349c14.355-10.774,27.966-19.341,39.062-25.714  C409.819,44.23,401.252,57.84,390.477,72.195z" fill="#cccccc"/>
<g>
</g>
<g>
</g>
<g>
</g>
<g>
</g>
<g>
</g>
<g>
</g>
<g>
</g>
<g>
</g>
<g>
</g>
<g>
</g>
<g>
</g>
<g>
</g>
<g>
</g>
<g>
</g>
<g>
</g>
</svg>
